# xmcd
#
# Track frame offsets: 
#        150
#        15673
#        32332
#        50619
#        72005
#        92896
#        117046
#        131297
#        149006
#        170389
#        185929
#
# Disc length: 2811 seconds
#
# Revision: 0
# Processed by: cddbd v1.5.2PL0 Copyright (c) Steve Scherf et al.
# Submitted via: ExactAudioCopyFreeDBPlugin 1.0
#
DISCID=950af90b
DTITLE=Jimi B - Livin' On Mars
DYEAR=1999
DGENRE=Blues
TTITLE0=Thrill A Minute
TTITLE1=Livin' On Mars
TTITLE2=Absolute Faith
TTITLE3=Under This Moon
TTITLE4=Bullet Trane
TTITLE5=Can't Feel Nothin'
TTITLE6=On My Guitar
TTITLE7=Beneath Your Sky
TTITLE8=Drillin' For Oil
TTITLE9=What You're Doin' To Me
TTITLE10=Circles
EXTD=
EXTT0=
EXTT1=
EXTT2=
EXTT3=
EXTT4=
EXTT5=
EXTT6=
EXTT7=
EXTT8=
EXTT9=
EXTT10=
PLAYORDER=
